<?xml version="1.0" encoding="UTF-8"?>
<svg id="Layer_1" data-name="Layer 1" xmlns="http://www.w3.org/2000/svg" viewBox="0 0 848.43 464.84">
  <defs>
    <style>
      .cls-1 {
        stroke-width: 10px;
      }

      .cls-1, .cls-2, .cls-3, .cls-4 {
        stroke-miterlimit: 10;
      }

      .cls-1, .cls-2, .cls-4 {
        stroke: #000;
      }

      .cls-1, .cls-4 {
        fill: #fff;
      }

      .cls-2, .cls-4 {
        stroke-width: 14px;
      }

      .cls-3 {
        fill: none;
        stroke: #fff;
        stroke-width: 4px;
      }
    </style>
  </defs>
  <path class="cls-2" d="M51.69,7.03l776.27,53.54c7.72.53,13.66,7.05,13.46,14.79l-7.89,311.66c-.1,4.1-1.94,7.96-5.06,10.62l-66.3,56.72c-2.85,2.43-6.53,3.67-10.26,3.45l-676.61-40.48c-3.72-.22-7.21-1.87-9.75-4.61l-54.71-59.08c-2.78-3.01-4.16-7.05-3.79-11.13L36.29,20.16c.71-7.83,7.55-13.66,15.4-13.12Z"/>
  <circle class="cls-4" cx="182.71" cy="205.15" r="136.64"/>
  <circle class="cls-1" cx="398.26" cy="177.89" r="48.03"/>
  <circle class="cls-1" cx="540.47" cy="150.2" r="48.03"/>
  <circle class="cls-1" cx="682.67" cy="177.89" r="48.03"/>
  <circle class="cls-1" cx="398.26" cy="300.31" r="48.03"/>
  <circle class="cls-1" cx="677.35" cy="300.31" r="48.03"/>
  <circle class="cls-1" cx="537.81" cy="274.17" r="48.03"/>
  <line class="cls-3" x1="300.86" y1="243.49" x2="361.94" y2="305.22"/>
  <line class="cls-3" x1="517.4" y1="162.36" x2="424.21" y2="278.46"/>
  <line class="cls-3" x1="579.59" y1="278.46" x2="644.29" y2="316.99"/>
  <line class="cls-3" x1="670.34" y1="198.23" x2="564.3" y2="243.49"/>
</svg>