<?xml version="1.0" encoding="UTF-8"?>
<svg id="img" xmlns="http://www.w3.org/2000/svg" viewBox="0 0 411.37 314.61">
  <defs>
    <style>
      .cls-1 {
        fill: none;
      }

      .cls-1, .cls-2 {
        stroke: #000;
        stroke-miterlimit: 10;
      }
    </style>
  </defs>
  <g>
    <path class="cls-1" d="M255.23,207.56c-13.53,29.87-27.02,60.33-40.71,89.77-3.47-32.83-7.94-65.69-12.67-98.42,3.95-24.64,7.28-49.47,12.15-73.88,14.76-10.65,30.44-20.02,44.73-31.31-.93,37.84-2.86,75.87-3.51,113.84ZM214.03,118.98c1.41-36.38,8.41-74.24,9.24-109.82-15.49,53.19-33.07,105.74-49.38,158.67,6.74,10.6,14.46,20.58,22.87,29.89,6.68,33.6,11.09,67.9,16.79,101.78.27,4.66-1.59,9.1-3.16,13.37-11.48-48.82-26.81-96.6-39.57-145.09,1.99-35.12,3.24-70.55,4.43-105.81,7.96-9.31,41.27-53.09,48.99-61.07l35.48,86.28c-13.82,11.82-30.17,21.99-45.68,31.8Z"/>
    <path class="cls-2" d="M201.86,198.9c4.72,32.73,9.19,65.59,12.67,98.42,13.69-29.44,27.18-59.9,40.71-89.77.65-37.97,2.58-76,3.51-113.84-14.29,11.3-29.98,20.66-44.73,31.31-4.86,24.41-8.2,49.24-12.15,73.88Z"/>
    <path class="cls-2" d="M175.25,61.97c-1.19,35.26-2.43,70.7-4.43,105.81,12.76,48.49,28.09,96.27,39.57,145.09,1.57-4.27,3.44-8.72,3.16-13.37-5.7-33.88-10.11-68.17-16.79-101.78-8.41-9.32-16.13-19.3-22.87-29.89,16.3-52.93,33.89-105.48,49.38-158.67-.83,35.57-7.83,73.44-9.24,109.82,15.51-9.8,31.86-19.98,45.68-31.8L224.23.9c-7.71,7.99-41.03,51.77-48.99,61.07Z"/>
  </g>
  <polygon class="cls-2" points="265.81 111.97 410.85 191.19 409.63 154.63 265.81 111.97"/>
  <polygon class="cls-2" points="265.38 119.18 383.44 234.81 392.2 199.29 265.38 119.18"/>
  <polygon class="cls-2" points="265.99 130.42 331.64 282.08 353.16 252.49 265.99 130.42"/>
  <polygon class="cls-2" points="158.86 118.06 3.78 116.84 31.81 109.52 158.86 118.06"/>
</svg>